<svg xmlns="http://www.w3.org/2000/svg" viewBox="0 0 96 96" width="96" height="96" role="img" aria-label="eSign & Invoice app icon">
  <defs>
    <linearGradient id="graphite" x1="0" y1="0" x2="0" y2="1">
      <stop offset="0" stop-color="#34353C"/>
      <stop offset="1" stop-color="#17181C"/>
    </linearGradient>
  </defs>
  <rect x="0" y="0" width="96" height="96" rx="22" fill="url(#graphite)"/>
  <g transform="translate(17,21) scale(0.333)" fill="#FFFFFF">
    <path d="M7.66602 86.8647L15.9424 95.1037L24.2188 86.8647C25.6348 85.4975 27.7832 85.4487 29.248 86.8647C30.6641 88.3296 30.6641 90.478 29.248 91.894L20.9831 100.122L29.248 108.35C30.6641 109.717 30.6641 111.914 29.248 113.379C27.7832 114.795 25.6348 114.795 24.2188 113.379L15.9424 105.14L7.66602 113.379C6.25 114.746 4.10156 114.795 2.63672 113.379C1.2207 111.914 1.2207 109.766 2.63672 108.35L10.9017 100.122L2.63672 91.894C1.2207 90.5268 1.2207 88.3296 2.63672 86.8647C4.10156 85.4487 6.25 85.4487 7.66602 86.8647Z"/>
    <path d="M46.1658 136.963H4.3457C1.95312 136.963 0 135.01 0 132.617C0 130.273 1.95312 128.32 4.3457 128.32H48.9066C47.6093 131.298 46.6762 134.21 46.1658 136.963ZM84.8224 136.963H54.4796C55.0224 134.275 56.0686 131.349 57.5766 128.32H89.0973C87.8176 131.46 86.3893 134.359 84.8224 136.963ZM185.645 132.617C185.645 135.01 183.691 136.963 181.299 136.963H94.1878C95.6161 134.306 96.8818 131.399 98.0137 128.32H181.299C183.691 128.32 185.645 130.273 185.645 132.617Z"/>
    <path d="M62.207 160.596C87.793 160.596 104.736 128.125 104.736 86.7188C104.736 51.2207 88.8672 23.1934 64.0625 23.1934C48.291 23.1934 36.0352 36.6211 36.0352 53.8574C36.0352 78.4668 55.6152 99.5605 80.0293 110.498C80.7617 110.889 81.3965 110.986 82.0801 110.986C84.2773 110.986 85.8887 109.277 85.8887 107.422C85.8887 106.055 85.2051 104.785 83.5938 103.955C67.2363 96.1914 44.3359 78.8086 44.3359 53.8574C44.3359 41.2109 52.9297 31.4453 64.0625 31.4453C83.8379 31.4453 96.4355 56.3965 96.4355 86.7188C96.4355 122.559 82.373 152.344 63.1836 152.344C56.7383 152.344 53.7598 148.145 53.7598 142.334C53.7598 124.17 80.2246 89.502 117.383 89.502C120.117 89.502 121.631 90.5762 121.631 92.4805C121.631 97.7539 118.457 102.588 118.457 108.057C118.457 112.598 121.729 115.137 125.879 115.137C138.232 115.137 153.467 92.9688 158.887 92.9688C164.014 92.9688 157.666 112.842 172.803 112.842C175.293 112.842 178.369 112.158 180.957 110.547C182.275 109.668 183.203 108.35 183.203 106.689C183.203 104.639 181.836 102.93 179.688 102.93C177.734 102.93 175.83 104.736 173.535 104.736C166.357 104.736 173.34 83.8379 161.182 83.8379C150.537 83.8379 133.887 105.566 128.857 105.566C128.174 105.566 127.686 105.225 127.686 104.297C127.686 101.416 130.762 96.0938 130.762 91.0156C130.762 84.9609 125.879 81.25 117.969 81.25C76.0742 81.25 45.3125 120.508 45.3125 143.799C45.3125 153.613 50.9766 160.596 62.207 160.596Z"/>
  </g>
</svg>
